:SAMPLES-PER-SECOND 30
:FULLY-SPECIFIED
:DEGREES
506
root  -21.3955 38.4146 13.3732 177.286 -0.298233 177.363
RightUpLeg  -1.66157 -5.5753 -6.97056
RightLeg  33.4003 -21.4013 -14.7314
RightFoot  -15.8229 0.620809 18.5008
RightToes  -5.8209e-011 0 -3.6325e-017
Spine  18.2283 2.18194 8.04601
Spine1  16.8064 6.77383 -7.94867
HEad  -22.6889 -16.8636 7.67826
LeftShoulder1  1.26756 -2.18849 -15.4598
LeftArm  12.5303 13.4784 -61.7357
LeftForeArm  51.0408 -78.4701 -75.9419
LeftHand  -1.51703 -0.475758 29.6721
RightShoulder  0.929308 1.05935 13.4732
RightArm  26.3674 8.97322 64.5078
RightForeArm  73.3832 78.1205 105.273
RightHand  -0.866094 1.38846 -14.9341
LeftUpLeg  -16.2201 4.4393 13.4182
LeftLeg  22.3503 13.8833 6.48928
LeftFoot  7.23809 1.52184 -9.56071
LeftToes  -3.91115e-011 -2.2622e-010 9.51032e-012
507
root  -20.8745 39.2505 13.154 177.32 -2.08391 178.986
RightUpLeg  1.54623 -8.39756 -5.0899
RightLeg  27.042 -21.5238 -11.729
RightFoot  -10.0126 -0.292379 18.774
RightToes  -5.8209e-011 0 -3.6325e-017
Spine  17.5423 1.21375 9.61421
Spine1  16.9472 5.9431 -8.09567
HEad  -21.6958 -16.9231 7.70373
LeftShoulder1  1.28492 -2.36785 -15.0387
LeftArm  14.3278 14.9149 -60.6054
LeftForeArm  56.5049 -78.6787 -82.1214
LeftHand  -1.49798 -0.542787 28.9905
RightShoulder  0.870455 0.793383 13.357
RightArm  26.0506 6.05279 64.5186
RightForeArm  78.1882 77.3864 113.485
RightHand  -0.790903 0.921615 -14.6289
LeftUpLeg  -15.9018 3.91527 10.7449
LeftLeg  22.8986 7.04323 3.61956
LeftFoot  3.37148 1.37716 -10.9404
LeftToes  -3.91115e-011 -2.2622e-010 9.51032e-012
508
root  -20.6051 39.8682 12.9725 179.547 -2.0656 178.724
RightUpLeg  -0.295895 -13.9706 -6.62187
RightLeg  24.987 -15.9243 -8.1326
RightFoot  -4.20212 -1.27572 19.8123
RightToes  -5.8209e-011 0 -3.6325e-017
Spine  14.5545 1.16218 9.9099
Spine1  17.5291 5.7684 -8.50906
HEad  -21.655 -16.5292 7.66285
LeftShoulder1  1.29936 -2.46876 -14.8999
LeftArm  16.0488 15.9047 -59.1611
LeftForeArm  61.5879 -78.7792 -86.9301
LeftHand  -1.43247 -0.548693 27.7516
RightShoulder  0.832426 0.622247 13.2688
RightArm  25.3891 3.22042 64.0869
RightForeArm  82.5058 76.4266 120.858
RightHand  -0.758258 0.736909 -14.4468
LeftUpLeg  -16.421 2.002 6.12642
LeftLeg  21.27 0.168396 0.412641
LeftFoot  0.658809 1.75789 -16.5909
LeftToes  -3.91115e-011 -2.2622e-010 9.51032e-012
509
root  -20.311 40.208 12.7983 -179.385 -0.725754 179.25
RightUpLeg  -2.66184 -18.8515 -7.60245
RightLeg  26.5395 -7.82021 -4.40394
RightFoot  1.04612 -2.3072 21.0777
RightToes  -5.8209e-011 0 -3.6325e-017
Spine  12.8273 1.35712 10.2552
Spine1  18.3125 5.80135 -8.29552
HEad  -21.7553 -15.3427 7.19066
LeftShoulder1  1.33906 -2.6739 -14.8155
LeftArm  17.5686 16.6957 -57.5361
LeftForeArm  67.2757 -78.7635 -92.9457
LeftHand  -1.41358 -0.641747 26.9968
RightShoulder  0.817183 0.595254 13.005
RightArm  25.0509 1.04816 63.6636
RightForeArm  84.4757 75.4741 126.095
RightHand  -0.853778 1.09733 -15.3436
LeftUpLeg  -15.6227 -1.13593 3.23513
LeftLeg  20.0526 -4.67879 -1.58009
LeftFoot  0.0656901 1.89125 -18.8347
LeftToes  -3.91115e-011 -2.2622e-010 9.51032e-012
510
root  -19.992 40.2153 12.6562 -179.431 2.24617 -179.822
RightUpLeg  -5.21376 -19.4514 -8.17355
RightLeg  30.6835 0.591234 0.176505
RightFoot  4.63914 -3.28232 23.3205
RightToes  -5.8209e-011 0 -3.6325e-017
Spine  12.3155 1.64247 10.5175
Spine1  19.1632 6.20216 -8.57236
HEad  -21.385 -13.0686 6.19168
LeftShoulder1  1.35648 -2.83019 -14.5287
LeftArm  19.1344 17.771 -55.9295
LeftForeArm  75.756 -78.5125 -101.991
LeftHand  -1.50684 -1.03626 27.0111
RightShoulder  0.83301 0.766746 12.5257
RightArm  25.1353 -0.428726 63.8108
RightForeArm  82.6959 74.6545 129.308
RightHand  -1.03559 1.49078 -17.5379
LeftUpLeg  -14.133 -2.96987 1.70061
LeftLeg  20.5568 -4.72098 -1.61588
LeftFoot  -0.826834 1.20567 -12.7524
LeftToes  -3.91115e-011 -2.2622e-010 9.51032e-012
511
root  -19.6344 39.8516 12.5346 179.654 5.66225 -178.979
RightUpLeg  -6.98725 -17.1408 -9.18448
RightLeg  35.5016 5.81788 4.15338
RightFoot  5.53137 -3.88828 26.0917
RightToes  -5.8209e-011 0 -3.6325e-017
Spine  12.451 1.7418 10.0008
Spine1  19.9812 6.38545 -9.31653
HEad  -20.7175 -9.77046 5.06971
LeftShoulder1  1.27176 -2.51519 -14.2132
LeftArm  20.9703 18.4985 -54.6352
LeftForeArm  82.1672 -78.2208 -108.009
LeftHand  -1.63894 -1.54987 27.2062
RightShoulder  0.859317 1.02678 11.9181
RightArm  25.0338 -1.50257 64.8876
RightForeArm  79.0199 74.0668 131.067
RightHand  -1.21705 1.59085 -20.2516
LeftUpLeg  -12.4992 -2.27196 1.39655
LeftLeg  22.526 -1.02126 -0.109773
LeftFoot  -4.72758 0.303107 -4.73188
LeftToes  -3.91115e-011 -2.2622e-010 9.51032e-012
512
root  -19.1904 39.3195 12.4348 178.03 7.99963 -178.444
RightUpLeg  -6.90128 -15.298 -11.2073
RightLeg  38.6467 4.33803 3.4053
RightFoot  4.65402 -3.84749 27.1182
RightToes  -5.8209e-011 0 -3.6325e-017
Spine  12.9092 1.6201 8.41854
Spine1  20.9014 5.8103 -9.22083
HEad  -20.3979 -6.3071 4.3146
LeftShoulder1  1.16688 -2.04961 -14.0837
LeftArm  22.7257 17.2848 -54.1186
LeftForeArm  77.5264 -78.5201 -102.613
LeftHand  -1.68568 -1.7226 27.2997
RightShoulder  0.852908 1.10355 11.4065
RightArm  24.2608 -2.39513 66.6659
RightForeArm  76.6473 73.7189 132.055
RightHand  -1.44947 1.94427 -22.8569
LeftUpLeg  -10.8679 -0.0136587 2.39104
LeftLeg  24.9036 1.57818 1.14287
LeftFoot  -10.0785 0.0691352 -2.51783
LeftToes  -3.91115e-011 -2.2622e-010 9.51032e-012
513
root  -18.5783 38.9286 12.3856 176.133 9.02289 -178.198
RightUpLeg  -5.29501 -14.0863 -13.4875
RightLeg  39.5588 -3.71366 -3.49191
RightFoot  4.18934 -3.25615 23.798
RightToes  -5.8209e-011 0 -3.6325e-017
Spine  13.5706 1.65281 5.97569
Spine1  22.1197 4.80699 -7.67852
HEad  -20.6414 -3.80077 3.88834
LeftShoulder1  1.22337 -2.3376 -14.0114
LeftArm  23.6836 13.7955 -54.8252
LeftForeArm  60.1899 -78.7367 -85.9837
LeftHand  -1.62968 -1.39506 27.6528
RightShoulder  0.815519 0.910224 11.3749
RightArm  22.6951 -3.22585 68.361
RightForeArm  76.1367 73.4395 132.984
RightHand  -1.81108 2.94123 -25.1011
LeftUpLeg  -9.44869 2.65066 4.12136
LeftLeg  27.1348 0.493239 0.628277
LeftFoot  -13.1994 0.0212597 -3.72509
LeftToes  -3.91115e-011 -2.2622e-010 9.51032e-012
514
root  -17.9728 38.724 12.3095 174.789 8.74782 -178.005
RightUpLeg  -3.36882 -13.1007 -15.2493
RightLeg  39.3437 -13.0851 -11.5374
RightFoot  4.76131 -2.39575 17.0548
RightToes  -5.8209e-011 0 -3.6325e-017
Spine  13.5121 1.15687 4.61089
Spine1  23.4561 3.51838 -6.19074
HEad  -20.7501 -2.22518 3.24948
LeftShoulder1  1.40873 -3.22993 -13.9837
LeftArm  23.2194 10.0348 -56.7149
LeftForeArm  44.1945 -78.1405 -71.991
LeftHand  -1.55142 -0.894939 28.376
RightShoulder  0.798424 0.715208 11.8741
RightArm  20.2807 -4.11792 69.371
RightForeArm  75.9225 72.9988 134.435
RightHand  -2.09355 3.79075 -26.3121
LeftUpLeg  -8.81603 3.00078 5.36809
LeftLeg  29.3845 -0.398168 0.140613
LeftFoot  -14.0763 0.00314408 -3.46446
LeftToes  -3.91115e-011 -2.2622e-010 9.51032e-012
515
root  -17.5471 38.5742 12.1781 174.63 9.40573 -177.74
RightUpLeg  -2.77487 -11.084 -15.8805
RightLeg  37.6646 -18.4897 -14.8861
RightFoot  5.29783 -1.89457 13.1347
RightToes  -5.8209e-011 0 -3.6325e-017
Spine  12.7935 -0.10355 5.45808
Spine1  23.5793 2.61859 -6.8084
HEad  -19.7949 -0.164041 1.95506
LeftShoulder1  1.46441 -3.39303 -14.3413
LeftArm  21.0638 8.31179 -59.2209
LeftForeArm  42.6744 -78.0252 -70.7497
LeftHand  -1.54565 -0.738694 28.9627
RightShoulder  0.820223 0.745703 12.2958
RightArm  17.3968 -5.10432 69.861
RightForeArm  76.4543 72.234 136.815
RightHand  -2.02698 3.61575 -25.9523
LeftUpLeg  -9.00268 1.60115 5.94426
LeftLeg  31.2325 1.76581 1.52249
LeftFoot  -14.8227 -0.0245089 -3.42853
LeftToes  -3.91115e-011 -2.2622e-010 9.51032e-012
516
root  -16.954 38.5002 11.9892 172.219 11.8488 -172.075
RightUpLeg  2.83119 -6.97699 -9.69642
RightLeg  30.9588 -21.5894 -13.6497
RightFoot  5.58539 -2.13708 14.5734
RightToes  -5.8209e-011 0 -3.6325e-017
Spine  16.683 -2.52364 12.2537
Spine1  21.5278 1.90116 -9.35407
HEad  -17.7685 3.50891 0.0863728
LeftShoulder1  1.28735 -2.35673 -15.1428
LeftArm  17.9562 8.79381 -61.3499
LeftForeArm  55.039 -78.6332 -79.755
LeftHand  -1.6089 -1.01406 28.8643
RightShoulder  0.835058 0.855323 12.1316
RightArm  14.9741 -6.20369 70.4143
RightForeArm  81.5601 71.1573 140.108
RightHand  -1.81302 3.05964 -24.7957
LeftUpLeg  -6.16084 0.849821 13.2733
LeftLeg  34.9997 3.5846 3.09747
LeftFoot  -16.3979 -0.212658 -7.20669
LeftToes  -3.91115e-011 -2.2622e-010 9.51032e-012
517
root  -16.366 38.2225 11.9565 173.777 18.2944 -172.301
RightUpLeg  -0.429754 -2.22857 -8.92388
RightLeg  28.033 -19.2458 -10.978
RightFoot  3.67861 -2.56539 19.5073
RightToes  -5.8209e-011 0 -3.6325e-017
Spine  16.782 -1.78684 11.6351
Spine1  18.7115 2.7604 -9.90105
HEad  -15.6555 8.4175 -2.00413
LeftShoulder1  1.07877 -1.26735 -15.8125
LeftArm  15.1085 9.69334 -62.1313
LeftForeArm  67.9948 -79.0238 -87.9036
LeftHand  -1.67427 -1.36582 28.4913
RightShoulder  0.801943 0.740926 11.8386
RightArm  13.175 -7.50726 71.161
RightForeArm  93.0169 70.2328 143.243
RightHand  -1.83479 3.48174 -23.9451
LeftUpLeg  -8.56028 3.20415 14.3061
LeftLeg  40.8327 6.78006 6.70132
LeftFoot  -14.3022 -0.220236 -12.1978
LeftToes  -3.91115e-011 -2.2622e-010 9.51032e-012
518
root  -15.7874 37.7105 12.026 174.788 22.7093 -172.405
RightUpLeg  -3.42818 -0.513241 -8.87625
RightLeg  28.1327 -15.9043 -9.20849
RightFoot  0.05196 -2.40493 23.8625
RightToes  -5.8209e-011 0 -3.6325e-017
Spine  17.4188 -1.75036 10.1151
Spine1  16.1868 2.17272 -8.57852
HEad  -14.6211 13.8452 -4.3688
LeftShoulder1  1.06236 -1.17234 -15.945
LeftArm  12.8826 9.51856 -61.4328
LeftForeArm  63.574 -78.9709 -81.3008
LeftHand  -1.75993 -1.5161 29.2589
RightShoulder  0.71673 0.243902 12.1197
RightArm  10.7843 -8.63819 71.7179
RightForeArm  103.382 70.7709 143.258
RightHand  -2.08522 4.6491 -24.0464
LeftUpLeg  -13.2907 2.67342 14.9191
LeftLeg  50.3368 8.26576 11.0011
LeftFoot  -9.56214 0.247894 -13.4995
LeftToes  -3.91115e-011 -2.2622e-010 9.51032e-012
519
root  -15.3335 36.9126 12.1544 176.392 26.3573 -173.706
RightUpLeg  -9.25918 -0.0698718 -10.2406
RightLeg  33.2924 -11.7379 -8.39009
RightFoot  -5.67821 -1.37654 26.4604
RightToes  -5.8209e-011 0 -3.6325e-017
Spine  16.0676 -1.55155 5.97434
Spine1  15.5994 0.480105 -4.23095
HEad  -15.4812 20.1058 -7.47602
LeftShoulder1  1.18717 -1.72288 -15.9401
LeftArm  10.7862 8.43618 -60.0846
LeftForeArm  40.2818 -77.3134 -59.9921
LeftHand  -1.94251 -1.52238 32.0832
RightShoulder  0.6011 -0.455224 12.7953
RightArm  6.83759 -8.34563 71.9689
RightForeArm  97.0637 74.4054 132.197
RightHand  -2.33296 5.3125 -25.2017
LeftUpLeg  -19.8172 1.24466 14.4396
LeftLeg  58.6857 7.78457 14.0227
LeftFoot  -5.74334 0.541062 -10.2623
LeftToes  -3.91115e-011 -2.2622e-010 9.51032e-012
520
root  -14.8859 36.0588 12.3428 177.503 31.263 -174.798
RightUpLeg  -15.3854 1.35155 -10.7904
RightLeg  39.8779 -7.8717 -7.28069
RightFoot  -11.0744 -0.148134 26.1801
RightToes  -5.8209e-011 0 -3.6325e-017
Spine  14.4352 -0.748991 -0.364018
Spine1  16.974 -1.55767 1.85023
HEad  -18.2065 27.3694 -11.2976
LeftShoulder1  1.31443 -2.1866 -16.3628
LeftArm  8.51466 7.19961 -59.0263
LeftForeArm  17.3341 -73.0789 -40.4889
LeftHand  -2.2352 -1.60677 36.2036
RightShoulder  0.545941 -0.81662 13.4712
RightArm  1.73003 -6.04302 71.8066
RightForeArm  54.0604 78.2004 88.8732
RightHand  -2.59254 5.72823 -26.8814
LeftUpLeg  -23.963 0.278152 15.4364
LeftLeg  62.4128 6.59586 14.0678
LeftFoot  -5.94029 0.351489 -6.51283
LeftToes  -3.91115e-011 -2.2622e-010 9.51032e-012
